<svg viewBox="0 0 1000 1000" xmlns="http://www.w3.org/2000/svg"><defs><clipPath id="c"><path fill="currentColor" d="M870.5 649.5Q856 799 706.5 811t-264.5.5q-115-11.5-200.5-99T134.5 492q-21.5-133 60-256t222-91q140.5 32 286 47.5t164 161.5q18.5 146 4 295.5Z"/></clipPath><pattern id="a" patternUnits="userSpaceOnUse" width="25" height="25" viewBox="0 0 100 100" fill="#212121" patternTransform="rotate(45 0 0)"><path d="M0 0v100" stroke="#212121" stroke-width="20"/></pattern><filter id="b" x="-50vw" y="-50vh" width="100vw" height="100vh"><feFlood flood-color="#fff" result="neutral-gray"/><feTurbulence type="fractalNoise" baseFrequency="2.5" numOctaves="100" stitchTiles="stitch" result="noise"/><feColorMatrix in="noise" type="saturate" values="0" result="destaturatedNoise"/><feComponentTransfer in="desaturatedNoise" result="theNoise"><feFuncA type="table" tableValues="0 0 0.1 0"/></feComponentTransfer><feBlend in="SourceGraphic" in2="theNoise" mode="soft-light" result="noisy-image"/></filter></defs><path fill="url(#a)" d="M870.5 649.5Q856 799 706.5 811t-264.5.5q-115-11.5-200.5-99T134.5 492q-21.5-133 60-256t222-91q140.5 32 286 47.5t164 161.5q18.5 146 4 295.5Z" transform="translate(-60 -60)"/><g filter="url(#b)" clip-path="url(#c)"><path fill="#212121" d="M870.5 649.5Q856 799 706.5 811t-264.5.5q-115-11.5-200.5-99T134.5 492q-21.5-133 60-256t222-91q140.5 32 286 47.5t164 161.5q18.5 146 4 295.5Z"/></g></svg>